<svg width="254" height="72" viewBox="0 0 254 72" fill="none" xmlns="http://www.w3.org/2000/svg">
<path d="M253 1H1V71H253V1Z" stroke="#222222" stroke-width="2"/>
<g filter="url(#filter0_d)">
<path d="M32.78 52.1556C30.932 52.1556 29.304 51.833 27.896 51.1876C26.488 50.5423 25.4027 49.6476 24.64 48.5036C23.8773 47.3303 23.496 45.981 23.496 44.4556C23.496 43.165 23.76 41.9916 24.288 40.9356C24.8453 39.8796 25.5787 39.0436 26.488 38.4276C27.4267 37.8116 28.4533 37.5036 29.568 37.5036C30.5947 37.5036 31.46 37.7676 32.164 38.2956C32.868 38.7943 33.308 39.4983 33.484 40.4076C31.9587 40.4076 30.7413 40.8183 29.832 41.6396C28.9227 42.4316 28.468 43.517 28.468 44.8956C28.468 46.157 28.8493 47.169 29.612 47.9316C30.3747 48.6943 31.3867 49.0756 32.648 49.0756C34.2027 49.0756 35.4787 48.5623 36.476 47.5356C37.5027 46.4796 38.016 45.1596 38.016 43.5756C38.016 42.197 37.6347 40.8916 36.872 39.6596C36.1093 38.4276 34.9653 36.9316 33.44 35.1716C31.856 33.353 30.6533 31.7983 29.832 30.5076C29.04 29.1876 28.644 27.7503 28.644 26.1956C28.644 24.6703 29.0693 23.3063 29.92 22.1036C30.7707 20.8716 31.944 19.9036 33.44 19.1996C34.936 18.4956 36.6227 18.1436 38.5 18.1436C40.876 18.1436 42.768 18.701 44.176 19.8156C45.6133 20.9303 46.332 22.4263 46.332 24.3036C46.332 25.5356 46.024 26.533 45.408 27.2956C44.792 28.0583 43.9853 28.4396 42.988 28.4396C41.8733 28.4396 40.9787 27.985 40.304 27.0756C40.8613 26.665 41.3013 26.1223 41.624 25.4476C41.9467 24.773 42.108 24.069 42.108 23.3356C42.108 22.397 41.8293 21.649 41.272 21.0916C40.7147 20.5343 39.952 20.2556 38.984 20.2556C37.8107 20.2556 36.8427 20.681 36.08 21.5316C35.3467 22.353 34.98 23.409 34.98 24.6996C34.98 25.873 35.3173 26.973 35.992 27.9996C36.6667 28.997 37.7227 30.2876 39.16 31.8716C40.3333 33.133 41.272 34.2183 41.976 35.1276C42.7093 36.037 43.3253 37.093 43.824 38.2956C44.352 39.469 44.616 40.745 44.616 42.1236C44.616 44.001 44.088 45.7023 43.032 47.2276C42.0053 48.753 40.5827 49.9556 38.764 50.8356C36.9747 51.7156 34.98 52.1556 32.78 52.1556ZM51.4498 51.6276C50.0418 51.6276 48.8978 51.1876 48.0178 50.3076C47.1671 49.4276 46.7417 48.1076 46.7417 46.3476C46.7417 45.6143 46.8591 44.661 47.0938 43.4876L50.0858 29.3636H56.4218L53.2538 44.3236C53.1658 44.7636 53.1218 45.1743 53.1218 45.5556C53.1218 46.7583 53.5618 47.3596 54.4418 47.3596C55.2631 47.3596 55.9671 47.0223 56.5538 46.3476C57.1404 45.6436 57.6098 44.6903 57.9618 43.4876L60.9538 29.3636H67.2898L64.1218 44.3236C64.0044 44.7636 63.9458 45.233 63.9458 45.7316C63.9458 46.3183 64.0778 46.7436 64.3418 47.0076C64.6351 47.2423 65.1044 47.3596 65.7498 47.3596C66.5711 47.3596 67.2751 47.0076 67.8618 46.3036C68.4778 45.5996 68.9618 44.661 69.3137 43.4876H71.1618C70.0764 46.6556 68.7271 48.8116 67.1138 49.9556C65.5298 51.0703 63.9311 51.6276 62.3178 51.6276C61.0564 51.6276 60.0444 51.2756 59.2818 50.5716C58.5484 49.8676 58.1084 48.8263 57.9618 47.4476C56.9644 49.061 55.9084 50.161 54.7938 50.7476C53.7084 51.3343 52.5938 51.6276 51.4498 51.6276ZM85.1926 51.6276C83.4033 51.6276 82.0833 51.1583 81.2326 50.2196C80.4113 49.2516 80.0006 48.0636 80.0006 46.6556C80.0006 46.0396 80.0739 45.3503 80.2206 44.5876C80.3673 43.7956 80.5139 43.033 80.6606 42.2996C80.8366 41.5663 80.9539 41.097 81.0126 40.8916C81.2473 39.865 81.4673 38.853 81.6726 37.8556C81.8779 36.8583 81.9806 36.0516 81.9806 35.4356C81.9806 33.9396 81.4526 33.1916 80.3966 33.1916C79.6339 33.1916 78.9593 33.573 78.3726 34.3356C77.7859 35.069 77.3166 36.037 76.9646 37.2396L73.9726 51.3636H67.6366L72.3006 29.3636H78.6366L78.1526 31.6516C79.6193 30.009 81.3353 29.1876 83.3006 29.1876C84.7966 29.1876 85.9846 29.5983 86.8646 30.4196C87.7446 31.241 88.1846 32.4876 88.1846 34.1596C88.1846 35.0103 88.0819 35.9636 87.8766 37.0196C87.6713 38.0463 87.3779 39.3076 86.9966 40.8036C86.7619 41.713 86.5419 42.6076 86.3366 43.4876C86.1606 44.3383 86.0726 45.013 86.0726 45.5116C86.0726 46.0983 86.2046 46.553 86.4686 46.8756C86.7326 47.1983 87.1873 47.3596 87.8326 47.3596C88.7126 47.3596 89.4166 47.0516 89.9446 46.4356C90.4726 45.7903 91.0006 44.8076 91.5286 43.4876H93.3766C92.2913 46.7143 91.0299 48.885 89.5926 49.9996C88.1846 51.085 86.7179 51.6276 85.1926 51.6276ZM96.5394 51.6276C95.1314 51.6276 93.9434 51.3636 92.9754 50.8356C92.0074 50.2783 91.2888 49.5743 90.8194 48.7236C90.3501 47.8436 90.1154 46.9343 90.1154 45.9956C90.1154 45.0276 90.3501 44.1916 90.8194 43.4876C91.2594 42.7543 91.8021 42.2263 92.4474 41.9036C93.5914 39.8503 94.5888 37.7823 95.4394 35.6996C96.2901 33.5876 97.0968 31.3143 97.8594 28.8796L104.371 27.9996C104.518 31.7543 104.767 35.817 105.119 40.1876C105.266 41.9476 105.339 43.2236 105.339 44.0156C105.339 44.6903 105.281 45.2476 105.163 45.6876C106.542 44.8956 107.598 44.1623 108.331 43.4876H110.179C108.302 45.6583 106.058 47.4916 103.447 48.9876C102.597 49.897 101.541 50.5716 100.279 51.0116C99.0474 51.4223 97.8008 51.6276 96.5394 51.6276ZM95.1314 48.1516C96.2168 48.1516 97.1261 47.829 97.8594 47.1836C98.5928 46.5383 98.9594 45.497 98.9594 44.0596C98.9594 43.1796 98.8714 41.9476 98.6954 40.3636C98.4021 37.0196 98.2114 34.7756 98.1234 33.6316C97.4194 35.949 96.2314 38.721 94.5594 41.9476C95.2341 42.2996 95.5714 42.813 95.5714 43.4876C95.5714 44.045 95.3808 44.5436 94.9994 44.9836C94.6474 45.4236 94.1928 45.6436 93.6354 45.6436C93.0194 45.6436 92.6234 45.453 92.4474 45.0716C92.4474 46.1276 92.6528 46.905 93.0634 47.4036C93.5034 47.9023 94.1928 48.1516 95.1314 48.1516ZM114.616 51.6276C112.446 51.6276 110.759 51.0703 109.556 49.9556C108.354 48.8116 107.752 47.037 107.752 44.6316C107.752 42.6076 108.148 40.3783 108.94 37.9436C109.732 35.509 111.023 33.4116 112.812 31.6516C114.602 29.8623 116.875 28.9676 119.632 28.9676C122.859 28.9676 124.472 30.3756 124.472 33.1916C124.472 34.8343 124.003 36.345 123.064 37.7236C122.126 39.1023 120.879 40.217 119.324 41.0676C117.77 41.889 116.112 42.3583 114.352 42.4756C114.294 43.3556 114.264 43.9423 114.264 44.2356C114.264 45.673 114.514 46.6556 115.012 47.1836C115.511 47.6823 116.318 47.9316 117.432 47.9316C119.016 47.9316 120.366 47.565 121.48 46.8316C122.624 46.0983 123.871 44.9836 125.22 43.4876H126.716C123.46 48.9143 119.427 51.6276 114.616 51.6276ZM114.704 40.3636C115.79 40.305 116.816 39.9236 117.784 39.2196C118.782 38.5156 119.574 37.621 120.16 36.5356C120.776 35.4503 121.084 34.3063 121.084 33.1036C121.084 31.901 120.718 31.2996 119.984 31.2996C118.928 31.2996 117.887 32.2236 116.86 34.0716C115.863 35.9196 115.144 38.017 114.704 40.3636ZM129.347 51.6276C127.851 51.6276 126.736 51.173 126.003 50.2636C125.299 49.3543 124.947 48.1516 124.947 46.6556C124.947 45.893 125.035 45.1156 125.211 44.3236L128.027 31.1236H126.575L126.927 29.3636H128.379L129.699 23.2916L136.211 22.4116C135.947 23.5263 135.8 24.1863 135.771 24.3916C135.566 25.213 135.214 26.8703 134.715 29.3636H137.355L137.003 31.1236H134.363L131.547 44.3236C131.4 44.969 131.327 45.4823 131.327 45.8636C131.327 46.9196 131.84 47.4476 132.867 47.4476C133.395 47.4476 133.776 47.4036 134.011 47.3156C133.424 49.017 132.735 50.161 131.943 50.7476C131.151 51.3343 130.286 51.6276 129.347 51.6276Z" fill="#222222"/>
</g>
<g filter="url(#filter1_d)">
<path d="M156.43 21.4436C154.464 22.265 152.939 23.497 151.854 25.1396C150.798 26.7823 150.27 28.7623 150.27 31.0796C150.27 32.165 150.372 32.9276 150.578 33.3676C150.783 33.7783 150.886 34.013 150.886 34.0716C149.302 34.0716 148.114 33.749 147.322 33.1036C146.559 32.429 146.178 31.329 146.178 29.8036C146.178 27.9263 146.94 26.1076 148.466 24.3476C150.02 22.5583 152 21.121 154.406 20.0356C156.811 18.921 159.216 18.3636 161.622 18.3636C162.032 18.3636 162.619 18.393 163.382 18.4516L160.566 31.5636H167.034L169.85 18.4516H176.186L169.19 51.3636H162.854L166.374 34.8196H159.906L156.386 51.3636H150.05L156.43 21.4436ZM181.335 51.5396C179.165 51.5396 177.449 50.9823 176.187 49.8676C174.926 48.753 174.295 46.993 174.295 44.5876C174.295 42.593 174.706 40.3783 175.527 37.9436C176.349 35.509 177.669 33.4116 179.487 31.6516C181.306 29.8623 183.594 28.9676 186.351 28.9676C190.106 28.9676 191.983 31.3143 191.983 36.0076V36.0516C192.071 36.081 192.233 36.0956 192.467 36.0956C193.435 36.0956 194.55 35.8463 195.811 35.3476C197.073 34.8196 198.217 34.189 199.243 33.4556L199.639 34.6436C198.789 35.553 197.674 36.3303 196.295 36.9756C194.946 37.5916 193.465 38.0316 191.851 38.2956C191.617 40.965 191.015 43.297 190.047 45.2916C189.079 47.2863 187.833 48.8263 186.307 49.9116C184.782 50.997 183.125 51.5396 181.335 51.5396ZM183.095 47.5796C183.799 47.5796 184.503 47.1836 185.207 46.3916C185.911 45.5703 186.527 44.4703 187.055 43.0916C187.583 41.6836 187.965 40.129 188.199 38.4276C187.407 38.2516 187.011 37.6356 187.011 36.5796C187.011 35.377 187.466 34.585 188.375 34.2036C188.317 33.2356 188.17 32.5756 187.935 32.2236C187.701 31.8423 187.29 31.6516 186.703 31.6516C185.735 31.6516 184.797 32.3556 183.887 33.7636C182.978 35.1716 182.245 36.8583 181.687 38.8236C181.13 40.789 180.851 42.5196 180.851 44.0156C180.851 45.4236 181.013 46.377 181.335 46.8756C181.658 47.345 182.245 47.5796 183.095 47.5796ZM198.603 51.6276C197.195 51.6276 196.051 51.1876 195.171 50.3076C194.321 49.4276 193.895 48.1076 193.895 46.3476C193.895 45.6143 194.013 44.661 194.247 43.4876L196.887 31.1236H195.435L195.787 29.3636H197.239L198.559 23.2916L205.071 22.4116L203.575 29.3636H206.215L205.863 31.1236H203.223L200.407 44.3236C200.29 44.7636 200.231 45.233 200.231 45.7316C200.231 46.3183 200.363 46.7436 200.627 47.0076C200.921 47.2423 201.39 47.3596 202.035 47.3596C202.886 47.3596 203.678 47.0076 204.411 46.3036C205.145 45.5703 205.673 44.6316 205.995 43.4876H207.843C206.758 46.6556 205.365 48.8116 203.663 49.9556C201.962 51.0703 200.275 51.6276 198.603 51.6276ZM212.27 51.6276C210.099 51.6276 208.412 51.0703 207.21 49.9556C206.007 48.8116 205.406 47.037 205.406 44.6316C205.406 42.6076 205.802 40.3783 206.594 37.9436C207.386 35.509 208.676 33.4116 210.466 31.6516C212.255 29.8623 214.528 28.9676 217.286 28.9676C220.512 28.9676 222.126 30.3756 222.126 33.1916C222.126 34.8343 221.656 36.345 220.718 37.7236C219.779 39.1023 218.532 40.217 216.978 41.0676C215.423 41.889 213.766 42.3583 212.006 42.4756C211.947 43.3556 211.918 43.9423 211.918 44.2356C211.918 45.673 212.167 46.6556 212.666 47.1836C213.164 47.6823 213.971 47.9316 215.086 47.9316C216.67 47.9316 218.019 47.565 219.134 46.8316C220.278 46.0983 221.524 44.9836 222.874 43.4876H224.37C221.114 48.9143 217.08 51.6276 212.27 51.6276ZM212.358 40.3636C213.443 40.305 214.47 39.9236 215.438 39.2196C216.435 38.5156 217.227 37.621 217.814 36.5356C218.43 35.4503 218.738 34.3063 218.738 33.1036C218.738 31.901 218.371 31.2996 217.638 31.2996C216.582 31.2996 215.54 32.2236 214.514 34.0716C213.516 35.9196 212.798 38.017 212.358 40.3636ZM227.133 51.6276C225.725 51.6276 224.581 51.1876 223.701 50.3076C222.85 49.3983 222.425 48.049 222.425 46.2596C222.425 45.5263 222.542 44.573 222.777 43.3996L227.485 21.3556L233.997 20.4756L228.937 44.2356C228.819 44.6756 228.761 45.101 228.761 45.5116C228.761 46.685 229.362 47.2716 230.565 47.2716C231.093 47.2716 231.562 47.1836 231.973 47.0076C231.855 48.4743 231.327 49.6183 230.389 50.4396C229.479 51.2316 228.394 51.6276 227.133 51.6276Z" fill="#52CE7C"/>
</g>
<defs>
<filter id="filter0_d" x="22.496" y="18.1436" width="119.859" height="41.012" filterUnits="userSpaceOnUse" color-interpolation-filters="sRGB">
<feFlood flood-opacity="0" result="BackgroundImageFix"/>
<feColorMatrix in="SourceAlpha" type="matrix" values="0 0 0 0 0 0 0 0 0 0 0 0 0 0 0 0 0 0 127 0"/>
<feOffset dx="2" dy="4"/>
<feGaussianBlur stdDeviation="1.5"/>
<feColorMatrix type="matrix" values="0 0 0 0 0 0 0 0 0 0 0 0 0 0 0 0 0 0 0.3 0"/>
<feBlend mode="normal" in2="BackgroundImageFix" result="effect1_dropShadow"/>
<feBlend mode="normal" in="SourceGraphic" in2="effect1_dropShadow" result="shape"/>
</filter>
<filter id="filter1_d" x="145.178" y="18.3636" width="93.8188" height="39.264" filterUnits="userSpaceOnUse" color-interpolation-filters="sRGB">
<feFlood flood-opacity="0" result="BackgroundImageFix"/>
<feColorMatrix in="SourceAlpha" type="matrix" values="0 0 0 0 0 0 0 0 0 0 0 0 0 0 0 0 0 0 127 0"/>
<feOffset dx="2" dy="3"/>
<feGaussianBlur stdDeviation="1.5"/>
<feColorMatrix type="matrix" values="0 0 0 0 0 0 0 0 0 0 0 0 0 0 0 0 0 0 0.3 0"/>
<feBlend mode="normal" in2="BackgroundImageFix" result="effect1_dropShadow"/>
<feBlend mode="normal" in="SourceGraphic" in2="effect1_dropShadow" result="shape"/>
</filter>
</defs>
</svg>
